Coordinates
version=1
nRows=26
nColumns=24
inDegrees=yes

Units are S.I. units (second, meters, Newtons, ...)
Angles are in degrees.

endheader
time	pelvis_tilt	pelvis_list	pelvis_rotation	pelvis_tx	pelvis_ty	pelvis_tz	hip_flexion_r	hip_adduction_r	hip_rotation_r	knee_angle_r	ankle_angle_r	subtalar_angle_r	mtp_angle_r	hip_flexion_l	hip_adduction_l	hip_rotation_l	knee_angle_l	ankle_angle_l	subtalar_angle_l	mtp_angle_l	lumbar_extension	lumbar_bending	lumbar_rotation
      3.98500000	     -8.55241002	    -11.40653991	     -2.08018203	     -1.42017713	     -0.02400060	     -0.27479873	     13.74498542	     16.34036665	      1.65253615	    -16.77511107	      3.95765974	     -0.11039804	     11.35554005	     27.74728611	    -14.47885686	     -0.75111397	    -63.75623450	     -1.52464842	      4.83197329	      4.62072642	      7.48783087	     11.44360031	     -6.83584750
      3.99000000	     -8.41716154	    -11.09538606	     -2.11835376	     -1.41374337	     -0.02298606	     -0.27407700	     12.82113917	     16.10751242	      2.08666629	    -16.25516072	      3.99210383	     -0.38874429	     11.08283469	     28.30069024	    -14.12572826	     -1.04370105	    -62.95828405	     -1.00788105	      4.89303005	      4.50098109	      7.34393191	     11.09799724	     -6.60209099
      3.99500000	     -8.33453411	    -10.77295633	     -2.15413972	     -1.40739309	     -0.02210768	     -0.27341744	     12.01415991	     15.84723542	      2.39272495	    -15.82156577	      4.02974173	     -0.63586881	     10.82733616	     28.88822052	    -13.74383380	     -1.33108818	    -62.07926521	     -0.45172439	      4.94578897	      4.32999891	      7.24844435	     10.74999849	     -6.40028409
      4.00000000	     -8.25525275	    -10.47319661	     -2.19257792	     -1.40103149	     -0.02132209	     -0.27275753	     11.20611759	     15.60540734	      2.71216306	    -15.37812858	      4.09628200	     -0.85295431	     10.56783970	     29.46173949	    -13.39483949	     -1.63772614	    -61.14409397	      0.08936706	      4.99734300	      4.03168290	      7.16054771	     10.42710332	     -6.19849247
      4.00500000	     -8.20781020	    -10.17247997	     -2.24466538	     -1.39473083	     -0.02063996	     -0.27211502	     10.47655082	     15.35442559	      2.93326018	    -14.99930561	      4.15587387	     -1.02785036	     10.35330727	     30.03483557	    -13.03642930	     -1.94304831	    -60.12211133	      0.64175186	      5.00267118	      3.69616813	      7.09510141	     10.10614761	     -6.00015355
      4.01000000	     -8.15781505	     -9.89053908	     -2.30552126	     -1.38842395	     -0.02003568	     -0.27148429	      9.74286969	     15.11701532	      3.14886125	    -14.61596193	      4.22985178	     -1.17527247	     10.15438952	     30.57873128	    -12.70508991	     -2.26710808	    -59.03780709	      1.19234761	      4.99708448	      3.23771995	      7.02816759	      9.81248791	     -5.79337114
      4.01500000	     -8.10908036	     -9.63760462	     -2.36929187	     -1.38210010	     -0.01953059	     -0.27086489	      9.00457049	     14.90344186	      3.36452121	    -14.22245914	      4.33296525	     -1.28349612	      9.97109520	     31.10475602	    -12.41050722	     -2.60317726	    -57.90837442	      1.76779618	      4.98978223	      2.59492188	      6.96513031	      9.55406447	     -5.58912473
      4.02000000	     -8.09579856	     -9.38757362	     -2.44793298	     -1.37584293	     -0.01911526	     -0.27026820	      8.34776157	     14.68502712	      3.48996489	    -13.89349776	      4.41288765	     -1.34680489	      9.84685676	     31.63219076	    -12.10935406	     -2.92224497	    -56.68737686	      2.31925646	      4.92138719	      1.97489777	      6.92612772	      9.30295148	     -5.38528638
      4.02500000	     -8.06814841	     -9.15194839	     -2.53406101	     -1.36956489	     -0.01875952	     -0.26968828	      7.67000668	     14.47487275	      3.61923233	    -13.55670217	      4.50986024	     -1.37808326	      9.75663166	     32.11398252	    -11.83280614	     -3.26340768	    -55.41027146	      2.89070961	      4.86217906	      1.21302560	      6.87411994	      9.07565709	     -5.16860881
      4.03000000	     -8.04319821	     -8.94123661	     -2.63508526	     -1.36330941	     -0.01847822	     -0.26912408	      7.00269937	     14.28457052	      3.75339152	    -13.23415600	      4.60717608	     -1.36631861	      9.70154220	     32.57011175	    -11.58350733	     -3.59580621	    -54.08098212	      3.50467282	      4.81057249	      0.27094683	      6.81742514	      8.87471303	     -4.96446727
      4.03500000	     -8.02902833	     -8.73769453	     -2.72343629	     -1.35706163	     -0.01828897	     -0.26862125	      6.35563719	     14.09148414	      3.85774835	    -12.91953697	      4.71910843	     -1.33519645	      9.68747407	     33.02014026	    -11.33962833	     -3.93682043	    -52.70487445	      4.13444375	      4.78129039	     -0.76633362	      6.77153374	      8.69591322	     -4.75275520
      4.04000000	     -8.00444784	     -8.58127979	     -2.80092779	     -1.35077625	     -0.01818626	     -0.26810462	      5.69279759	     13.94423687	      3.92880006	    -12.59826198	      4.83550560	     -1.27170841	      9.71501750	     33.43929005	    -11.14059637	     -4.21857603	    -51.31038547	      4.92285691	      4.94887650	     -2.07946949	      6.72216462	      8.54748404	     -4.59330474
      4.04500000	     -8.12742915	     -8.38828398	     -2.87381625	     -1.34459993	     -0.01824182	     -0.26760914	      5.24119762	     13.76474010	      3.94856407	    -12.34824589	      4.92578218	     -1.27675254	      9.71472511	     33.98724935	    -10.88961911	     -4.46832758	    -49.75421275	      5.21707679	      4.83726005	     -2.37351856	      6.82200668	      8.36902478	     -4.46904720
      4.05000000	     -7.97771430	     -8.19042951	     -3.01465985	     -1.33834880	     -0.01804071	     -0.26718058	      4.45096435	     13.54957512	      4.09476768	    -12.05122105	      5.06469374	     -1.10233082	      9.80863506	     34.16612304	    -10.67976901	     -4.87252266	    -48.21113731	      5.97052585	      4.94317744	     -3.88786482	      6.61027695	      8.21536695	     -4.13757205
      4.05500000	     -8.09269992	     -7.99238635	     -3.15116774	     -1.33219126	     -0.01814341	     -0.26675557	      4.00291431	     13.35178379	      4.18809781	    -11.83423599	      5.14846572	     -1.04742551	      9.84174613	     34.62651766	    -10.45515773	     -5.21375558	    -46.55506499	      6.26869700	      4.81516076	     -4.53811913	      6.68672943	      8.06064178	     -3.93855336
      4.06000000	     -7.99863240	     -7.83189557	     -3.21159687	     -1.32592041	     -0.01813842	     -0.26641296	      3.29911197	     13.16752011	      4.20115075	    -11.56291710	      5.25729889	     -0.89990163	      9.94550970	     34.84261690	    -10.24948725	     -5.51597982	    -44.94802432	      7.07703756	      5.22575906	     -6.08725331	      6.55280117	      7.92507624	     -3.78407948
      4.06500000	     -8.11966099	     -7.63892317	     -3.36204425	     -1.31974937	     -0.01833750	     -0.26602891	      2.86874094	     12.96722154	      4.32173213	    -11.37147665	      5.35930115	     -0.81762665	      9.98813278	     35.23856950	    -10.03987592	     -5.83497938	    -43.18570373	      7.30497581	      5.28667044	     -6.49820816	      6.63458088	      7.78298060	     -3.55386431
      4.07000000	     -8.06205124	     -7.43879216	     -3.49149714	     -1.31354362	     -0.01840854	     -0.26570708	      2.24006481	     12.73654001	      4.42189729	    -11.17230039	      5.50021006	     -0.65288192	     10.07807044	     35.39444469	     -9.81374485	     -6.13465478	    -41.39931353	      7.75055159	      5.62906362	     -7.23457639	      6.51761908	      7.63378869	     -3.27098635
      4.07500000	     -8.19400212	     -7.30368363	     -3.52919808	     -1.30732468	     -0.01877904	     -0.26546948	      1.83407473	     12.58879587	      4.42117647	    -10.98820631	      5.57888114	     -0.60912049	     10.09850347	     35.78598720	     -9.60728838	     -6.31486355	    -39.59791614	      7.99189048	      6.03834854	     -7.46408817	      6.63325871	      7.53134292	     -3.22777784
      4.08000000	     -8.10151253	     -7.08562279	     -3.72258629	     -1.30105131	     -0.01884291	     -0.26517009	      1.17385830	     12.32254325	      4.55021708	    -10.81086020	      5.71244600	     -0.36429685	     10.20788576	     35.81776053	     -9.41199353	     -6.72663330	    -37.73660759	      8.38441024	      6.55532522	     -8.12810585	      6.47957670	      7.38281096	     -2.86542586
      4.08500000	     -8.07165879	     -6.91426385	     -3.81027466	     -1.29480134	     -0.01906755	     -0.26496807	      0.60738600	     12.10814488	      4.58784816	    -10.66326461	      5.81422529	     -0.17451268	     10.31302257	     35.94139683	     -9.19466257	     -6.95152719	    -35.89674250	      8.78176705	      7.29001772	     -8.81521914	      6.40575807	      7.25331387	     -2.67977906
      4.09000000	     -8.21576572	     -6.78402580	     -3.83798452	     -1.28850330	     -0.01957906	     -0.26487185	      0.24128186	     11.95245316	      4.58167424	    -10.53666245	      5.89113110	     -0.12050334	     10.34023374	     36.25950420	     -8.96435877	     -7.03097515	    -34.03413796	      8.96340468	      7.96520868	     -8.97560096	      6.54764451	      7.17120815	     -2.62717630
      4.09500000	     -8.14296254	     -6.59230436	     -4.01155377	     -1.28217361	     -0.01981120	     -0.26464658	     -0.35581365	     11.70227521	      4.65367686	    -10.43648546	      6.02607209	      0.16145320	     10.44867153	     36.25127222	     -8.78551959	     -7.34924394	    -32.15172094	      9.27181304	      8.90675294	     -9.31337059	      6.42721669	      7.04473752	     -2.29773314
      4.10000000	     -8.26523238	     -6.43567009	     -4.03855962	     -1.27581137	     -0.02035867	     -0.26460443	     -0.72292163	     11.50785890	      4.65377854	    -10.35701464	      6.11828245	      0.25260208	     10.48928561	     36.48826941	     -8.51938392	     -7.36904555	    -30.28266915	      9.38932136	      9.77062056	     -9.45342812	      6.55341417	      6.93224648	     -2.23630021
      4.10500000	     -8.23261753	     -6.24468828	     -4.19436896	     -1.26936034	     -0.02071095	     -0.26444551	     -1.25736117	     11.24977528	      4.66516760	    -10.29563016	      6.24021775	      0.56552728	     10.58365559	     36.48323915	     -8.32213874	     -7.61508388	    -28.41764372	      9.60516720	     10.85603441	     -9.61697495	      6.49890245	      6.80714320	     -1.96725771
      4.11000000	     -8.21244970	     -6.05883970	     -4.29961984	     -1.26299302	     -0.02115693	     -0.26435110	     -1.73414054	     10.99630071	      4.66493002	    -10.30726926	      6.41211675	      0.88103464	     10.70532921	     36.50175794	     -8.07976269	     -7.67277229	    -26.59460901	      9.73918181	     11.95544292	     -9.78336976	      6.44836841	      6.67188674	     -1.72474071
